<svg width="1359" height="557" viewBox="0 0 1359 557" fill="none" xmlns="http://www.w3.org/2000/svg">
<g clip-path="url(#clip0_107_15)">
<path d="M25.8855 108.743C89.9981 111.027 179.602 106.52 243.706 108.743C274.421 109.623 306.104 109.389 334.928 121.594C399.696 148.211 447.868 218.907 439.059 289.92C434.628 337.413 407.929 382.022 368.631 408.914C317.968 444.25 246.389 449.225 193.454 415.879C148.133 388.432 119.024 335.924 120.889 282.856C121.496 254.63 118.886 243.13 135.386 234.619L208.386 234.619C190.353 247.626 193.738 263.394 194.971 285.604C194.119 328.778 233.368 367.962 276.685 366.401C331.503 369.208 378.379 313.149 368.289 259.703C364.995 241.367 356.103 224.075 343.425 210.455C311.461 177.355 262.248 176.348 219.4 178.181C175.302 177.652 105.697 183.879 61.606 182.817C49.7254 158.089 37.4294 133.596 25.8855 108.743Z" fill="#0454BE"/>
<path d="M460.252 315.219C460.252 276.737 469.835 246.392 489 224.185C508.317 201.978 535.544 190.874 570.679 190.874C611.443 190.874 641.712 201.369 661.485 222.36C681.258 243.35 691.145 277.117 691.145 323.66C691.145 332.787 686.886 337.35 678.368 337.35H527.786C530.22 362.599 536.456 378.494 546.495 385.034C556.534 391.574 568.17 394.845 581.403 394.845C594.027 394.845 603.686 393.172 610.378 389.825C617.071 386.479 622.699 381.916 627.262 376.136C632.433 369.443 638.822 368.379 646.427 372.942L669.242 386.859C678.216 392.335 679.509 398.875 673.121 406.481C663.843 417.584 652.967 425.874 640.495 431.35C628.022 436.825 608.325 439.563 581.403 439.563C537.749 439.563 506.644 428.46 488.087 406.252C469.531 384.045 460.252 353.701 460.252 315.219ZM528.014 291.719H627.262C627.262 275.292 623.155 261.906 614.941 251.563C606.728 241.068 593.647 235.821 575.699 235.821C561.401 235.821 550.069 240.84 541.704 250.879C533.338 260.766 528.775 274.379 528.014 291.719Z" fill="#0454BE"/>
<path d="M691.145 217.797C687.343 205.933 689.852 200 698.674 200H739.514C746.663 200 751.226 203.879 753.203 211.636L788.567 345.335C790.545 352.788 792.142 360.165 793.359 367.466C794.727 374.767 795.564 380.699 795.868 385.262H797.237C797.541 380.699 798.302 374.767 799.519 367.466C800.888 360.165 802.561 352.788 804.538 345.335L839.902 211.636C841.88 203.879 846.443 200 853.591 200H894.431C903.253 200 905.763 205.933 901.96 217.797L835.795 424.277C832.601 434.468 827.049 439.563 819.14 439.563H773.965C766.056 439.563 760.504 434.468 757.31 424.277L691.145 217.797Z" fill="#0454BE"/>
<path d="M933.482 439.563C924.356 439.563 919.793 435 919.793 425.874V213.69C919.793 204.564 924.356 200 933.482 200H969.987C979.113 200 983.676 204.564 983.676 213.69V425.874C983.676 435 979.113 439.563 969.987 439.563H933.482ZM933.482 164.865C924.356 164.865 919.793 160.302 919.793 151.175V121.972C919.793 112.845 924.356 108.282 933.482 108.282H969.987C979.113 108.282 983.676 112.845 983.676 121.972V151.175C983.676 160.302 979.113 164.865 969.987 164.865H933.482Z" fill="#0454BE"/>
<path d="M1024.99 439.563C1011.91 439.563 1009.17 434.011 1016.78 422.908L1092.3 313.393L1025.68 216.656C1018.07 205.552 1020.81 200 1033.89 200H1077.01C1083.85 200 1089.03 203.043 1092.52 209.127L1127.89 270.728L1163.25 209.127C1166.75 203.043 1171.92 200 1178.77 200H1221.89C1235.12 200 1237.86 205.552 1230.1 216.656L1163.02 313.393L1239 422.908C1246.76 434.011 1244.02 439.563 1230.79 439.563H1187.66C1180.97 439.563 1175.8 436.521 1172.15 430.437L1127.89 356.058L1083.63 430.437C1079.98 436.521 1074.8 439.563 1068.11 439.563H1024.99Z" fill="#0454BE"/>
</g>
<defs>
<clipPath id="clip0_107_15">
<rect width="1359" height="557" fill="white"/>
</clipPath>
</defs>
</svg>
